<svg width="59" height="35" viewBox="0 0 59 35" fill="none" xmlns="http://www.w3.org/2000/svg">
<path d="M9.17363 0.689775C8.12119 1.78607 6.80563 2.79467 5.22696 3.7594C3.6483 4.63644 2.15733 5.25037 0.754074 5.60118V10.688C3.6483 9.85481 6.0163 8.58311 7.90193 6.87289V32H13.0326V0.689775H9.17363ZM30.4486 0.0758495C27.379 0.0758495 24.8356 0.909034 22.8623 2.66311C20.7574 4.41718 19.6172 6.87289 19.3541 10.0302H24.3971C24.5725 8.14459 25.1864 6.74133 26.2389 5.82044C27.2474 4.89955 28.6507 4.46104 30.4925 4.46104C32.2904 4.46104 33.6498 4.8557 34.5707 5.64504C35.4039 6.43437 35.8424 7.57452 35.8424 9.10933C35.8424 10.6441 35.36 11.8281 34.4391 12.6175C33.4744 13.4068 32.0711 13.8015 30.2294 13.8015H28.0368V17.6604H30.2294C32.2466 17.6604 33.7814 18.0551 34.8338 18.9321C35.8863 19.7653 36.4563 21.0809 36.4563 22.8788C36.4563 24.3698 35.9301 25.5976 34.9215 26.6062C33.7814 27.7025 32.2027 28.2726 30.2294 28.2726C28.4314 28.2726 26.9843 27.7464 25.888 26.7378C24.6602 25.6415 24.0463 24.0628 23.9586 22.0456H18.7402C19.0033 25.5538 20.2311 28.2726 22.4237 30.1144C24.3971 31.7807 27.0282 32.6139 30.2732 32.6139C33.6937 32.6139 36.4563 31.6492 38.5612 29.7636C40.5784 27.9218 41.587 25.5538 41.587 22.6596C41.587 20.8178 41.0608 19.283 40.0083 18.099C39.0436 16.9588 37.5965 16.1256 35.7547 15.5556C39.219 14.4154 40.9731 12.1351 40.9731 8.71467C40.9731 5.99585 40.0083 3.89096 38.1227 2.35615C36.1932 0.821332 33.606 0.0758495 30.4486 0.0758495ZM50.5431 12.0748C48.9534 12.1844 47.6653 12.5956 46.6238 13.3356C45.226 14.2948 44.5408 15.6652 44.5408 17.4741C44.5408 19.5022 45.4727 21.037 47.3912 22.0785L50.5431 23.2296V29.643C49.6934 29.5333 49.0356 29.2593 48.5697 28.8207C47.9393 28.2178 47.5831 27.1763 47.4734 25.7511H44.2942C44.4586 27.9985 45.1164 29.6704 46.2675 30.7667C47.2542 31.6985 48.6793 32.2193 50.5431 32.3563V34.7681H52.3519V32.3563C54.0238 32.2467 55.3942 31.8356 56.4905 31.123C57.9705 30.1363 58.7105 28.6837 58.7105 26.7378C58.7105 24.737 57.7512 23.2022 55.8601 22.1333C55.6956 22.0237 54.5171 21.5852 52.3519 20.7904V14.7607C53.0371 14.843 53.5853 15.0348 53.9964 15.3363C54.6542 15.8022 55.0653 16.597 55.2297 17.7481H58.3542C58.0801 15.7474 57.3949 14.2948 56.2712 13.4178C55.3119 12.6504 53.9964 12.1844 52.3519 12.0748V9.82741H50.5431V12.0748ZM52.3519 23.8874C52.4616 23.9148 52.5438 23.9422 52.6534 23.997C54.5445 24.6548 55.5038 25.6141 55.5038 26.8474C55.5038 27.7519 55.1201 28.4644 54.3527 28.9578C53.8045 29.3141 53.1194 29.5333 52.3519 29.643V23.8874ZM50.5431 20.1052C48.6793 19.3926 47.7475 18.5156 47.7475 17.4741C47.7475 16.46 48.1038 15.72 48.8438 15.2815C49.2549 15.0074 49.8305 14.8156 50.5431 14.7333V20.1052Z" fill="#4F4F4F"/>
</svg>
