<svg width="15" height="17" viewBox="0 0 15 17" fill="none" xmlns="http://www.w3.org/2000/svg">
<path d="M9.79769 5.57972L14.8699 7.62108C15.0434 7.71181 15.0434 7.98399 14.8699 8.02935L9.79769 10.1614C9.75433 10.2068 9.71098 10.2522 9.66763 10.2975L7.71676 16.8299C7.67341 17.0567 7.36994 17.0567 7.28324 16.8299L5.24566 10.3429C5.24566 10.2975 5.15896 10.2068 5.11561 10.2068L0.130058 8.12008C-0.0433526 8.02935 -0.0433526 7.75717 0.130058 7.71181L5.15896 5.57972C5.20231 5.53436 5.24566 5.48899 5.28902 5.44363L7.23988 0.136091C7.32659 -0.0453636 7.5867 -0.0453636 7.63006 0.136091L9.66763 5.39826C9.66763 5.48899 9.71098 5.53436 9.79769 5.57972Z" fill="#050505"/>
</svg>
